<svg width="212" height="22" viewBox="0 0 212 22" fill="none" xmlns="http://www.w3.org/2000/svg">
<path d="M0.773947 15.1037H7.33012C7.51802 15.1037 7.66789 15.234 7.69908 15.4042C7.81852 16.0669 8.34572 16.4445 9.09963 16.4445C9.87179 16.4445 10.4363 16.0613 10.4363 15.3776C10.4363 14.3653 9.03953 14.0641 7.31642 13.6543C4.46436 12.9978 0.661356 12.1495 0.661356 7.55321C0.661356 3.75066 3.72186 1.47949 8.95052 1.47949C13.9296 1.47949 16.9285 3.66169 17.1119 7.35426C17.1218 7.55111 16.9544 7.71784 16.7406 7.71784H10.4515C10.2727 7.71784 10.1145 7.60085 10.0871 7.43762C9.99199 6.87579 9.59336 6.56895 8.95052 6.56895C8.23769 6.56895 7.82156 6.8975 7.82156 7.44463C7.82156 8.37495 9.21831 8.70351 10.9711 9.14065C13.9122 9.8524 17.8643 10.8093 17.8643 15.2144C17.8643 19.3182 14.5961 21.7259 9.09963 21.7259C3.79338 21.7259 0.586042 19.4057 0.4027 15.4666C0.393571 15.269 0.560937 15.1037 0.773947 15.1037Z" fill="#3C4652"/>
<path d="M32.0075 16.2119V20.8355C32.0075 21.0247 31.8409 21.1774 31.6362 21.1774H27.8926C24.5369 21.1774 21.8164 18.6722 21.8164 15.5821V11.341C21.8164 11.1519 21.6498 10.9992 21.4452 10.9992H19.217C19.0115 10.9992 18.8457 10.8458 18.8457 10.6573V9.62961C18.8457 9.54274 18.8815 9.45938 18.9461 9.39563L26.7279 1.75058C26.7979 1.68193 26.896 1.6427 26.9987 1.6427H27.8926C28.098 1.6427 28.2638 1.79612 28.2638 1.98457V6.06103C28.2638 6.25018 28.4304 6.4029 28.6351 6.4029H31.5465C31.7519 6.4029 31.9177 6.55632 31.9177 6.74477V10.6573C31.9177 10.8465 31.7511 10.9992 31.5465 10.9992H28.8435C28.6381 10.9992 28.4723 11.1526 28.4723 11.341V14.3506C28.4723 15.1891 29.2102 15.8694 30.1216 15.8694H31.637C31.8416 15.8694 32.0075 16.0228 32.0075 16.2119Z" fill="#3C4652"/>
<path d="M52.7164 6.74551V20.8356C52.7164 21.0247 52.5498 21.1774 52.3451 21.1774H47.8285C47.6916 21.1774 47.5661 21.1081 47.5014 20.9974L47.2747 20.61C47.1697 20.4299 46.9187 20.3746 46.7369 20.4923C45.5166 21.2804 44.0301 21.7246 42.3762 21.7246C37.3849 21.7246 33.998 18.5238 33.998 13.7902C33.998 9.05731 37.3849 5.91046 42.3762 5.91046C44.043 5.91046 45.5463 6.36722 46.7772 7.17775C46.9552 7.29544 47.2047 7.2436 47.3127 7.06846L47.6178 6.57528C47.684 6.46879 47.8072 6.40224 47.9404 6.40224H52.3451C52.5505 6.40365 52.7164 6.55636 52.7164 6.74551ZM43.5957 16.6358C45.2891 16.6358 46.5368 15.4323 46.5368 13.8182C46.5368 12.3856 45.5196 11.2654 44.0757 11.0609C41.9068 10.754 40.3929 12.2504 40.6851 14.2532C40.8874 15.6431 42.0582 16.6358 43.5957 16.6358Z" fill="#3C4652"/>
<path d="M79.6804 11.2731H77.1844C76.979 11.2731 76.8132 11.4265 76.8132 11.615V20.8355C76.8132 21.0247 76.6466 21.1774 76.4419 21.1774H70.5293C70.3239 21.1774 70.1581 21.024 70.1581 20.8355V11.615C70.1581 11.4258 69.9915 11.2731 69.7868 11.2731H65.0032C64.7978 11.2731 64.632 11.4265 64.632 11.615V20.8355C64.632 21.0247 64.4654 21.1774 64.2607 21.1774H58.3482C58.1428 21.1774 57.9769 21.024 57.9769 20.8355V11.615C57.9769 11.4258 57.8103 11.2731 57.6057 11.2731H55.7616C55.5577 11.2731 55.3911 11.1211 55.3904 10.9333L55.3652 7.0208C55.3637 6.83095 55.5303 6.67683 55.7365 6.67683H57.7251C57.9305 6.67683 58.0963 6.52341 58.0963 6.33497V5.54125C58.0963 2.70825 60.5901 0.411162 63.6673 0.411162H67.1729C67.3783 0.411162 67.5441 0.564581 67.5441 0.753028V4.66557C67.5441 4.85472 67.3775 5.00743 67.1729 5.00743H65.8058C65.0101 5.00743 64.365 5.6015 64.365 6.33427C64.365 6.52341 64.5316 6.67613 64.7362 6.67613H69.9055C70.1109 6.67613 70.2768 6.52271 70.2768 6.33427V5.54055C70.2768 2.70755 72.7705 0.410461 75.8478 0.410461H79.6508C79.8562 0.410461 80.022 0.56388 80.022 0.752327V4.66487C80.022 4.85401 79.8554 5.00673 79.6508 5.00673H77.987C77.1912 5.00673 76.5461 5.6008 76.5461 6.33356C76.5461 6.52271 76.7127 6.67543 76.9174 6.67543H79.6804C79.8858 6.67543 80.0517 6.82885 80.0517 7.0173V10.9298C80.0517 11.1204 79.8851 11.2731 79.6804 11.2731Z" fill="#3C4652"/>
<path d="M105.038 11.6016C105.038 5.74648 109.851 1.47876 116.506 1.47876C122.263 1.47876 126.612 4.79864 127.522 9.74729C127.561 9.95815 127.389 10.1515 127.157 10.1515H120.78C120.629 10.1515 120.49 10.0681 120.436 9.93783C119.789 8.35951 118.271 7.30659 116.537 7.30659C114.071 7.30659 112.407 9.02993 112.407 11.6023C112.407 14.1467 114.071 15.8707 116.537 15.8707C118.382 15.8707 119.902 14.7212 120.423 12.995C120.467 12.85 120.615 12.7512 120.778 12.7512H127.226C127.451 12.7512 127.627 12.9334 127.594 13.1372C126.776 18.261 122.363 21.7245 116.507 21.7245C109.851 21.7245 105.038 17.4568 105.038 11.6016Z" fill="#2780A8"/>
<path d="M129.521 13.7901C129.521 9.08458 133.353 5.85577 138.909 5.85577C144.465 5.85577 148.297 9.08388 148.297 13.7901C148.297 18.4957 144.465 21.7245 138.909 21.7245C133.353 21.7245 129.521 18.4964 129.521 13.7901ZM141.702 13.7901C141.702 12.2581 140.513 11.1365 138.909 11.1365C137.305 11.1365 136.116 12.2307 136.116 13.7901C136.116 15.3496 137.305 16.4438 138.909 16.4438C140.513 16.4438 141.702 15.3496 141.702 13.7901Z" fill="#2780A8"/>
<path d="M151.374 1.0683H157.287C157.492 1.0683 157.658 1.22172 157.658 1.41016V20.8356C157.658 21.0247 157.491 21.1774 157.287 21.1774H151.374C151.169 21.1774 151.003 21.024 151.003 20.8356V1.41016C151.003 1.22172 151.169 1.0683 151.374 1.0683Z" fill="#2780A8"/>
<path d="M161.566 1.0683H167.478C167.684 1.0683 167.849 1.22172 167.849 1.41016V20.8356C167.849 21.0247 167.683 21.1774 167.478 21.1774H161.566C161.36 21.1774 161.194 21.024 161.194 20.8356V1.41016C161.194 1.22172 161.36 1.0683 161.566 1.0683Z" fill="#2780A8"/>
<path d="M189.301 6.74551V20.8356C189.301 21.0247 189.134 21.1774 188.929 21.1774H184.413C184.276 21.1774 184.15 21.1081 184.086 20.9974L183.86 20.61C183.755 20.4299 183.504 20.3746 183.322 20.4923C182.102 21.2804 180.615 21.7246 178.962 21.7246C173.971 21.7246 170.583 18.5238 170.583 13.7902C170.583 9.05731 173.97 5.91046 178.962 5.91046C180.629 5.91046 182.132 6.36722 183.363 7.17775C183.541 7.29544 183.79 7.2436 183.898 7.06846L184.204 6.57528C184.27 6.46879 184.393 6.40224 184.526 6.40224H188.931C189.134 6.40365 189.301 6.55636 189.301 6.74551ZM180.179 16.6358C181.873 16.6358 183.12 15.4323 183.12 13.8182C183.12 12.3856 182.103 11.2654 180.659 11.0609C178.49 10.754 176.976 12.2504 177.269 14.2532C177.472 15.6431 178.642 16.6358 180.179 16.6358Z" fill="#2780A8"/>
<path d="M211.554 13.8175C211.554 18.5504 208.168 21.7246 203.176 21.7246C201.457 21.7246 199.919 21.2321 198.679 20.3627C198.486 20.2282 198.209 20.2947 198.114 20.4993L197.895 20.9701C197.837 21.0962 197.703 21.1774 197.554 21.1774H193.208C193.003 21.1774 192.837 21.024 192.837 20.8356V1.41016C192.837 1.22102 193.004 1.0683 193.208 1.0683H198.972C199.178 1.0683 199.344 1.22172 199.344 1.41016V6.29156C199.344 6.54726 199.634 6.70768 199.884 6.59559C200.869 6.15215 201.98 5.91046 203.176 5.91046C208.168 5.91116 211.554 9.08463 211.554 13.8175ZM204.899 13.8175C204.899 12.2035 203.652 10.9992 201.958 10.9992C200.265 10.9992 199.017 12.2035 199.017 13.8175C199.017 15.4316 200.265 16.6351 201.958 16.6351C203.621 16.6358 204.899 15.4323 204.899 13.8175Z" fill="#2780A8"/>
<path d="M88.9246 10.8452C87.9911 10.8452 87.0584 10.518 86.3152 9.86373C84.9298 8.64409 83.6465 6.4759 83.9044 4.38267C83.9721 3.83485 84.125 3.11189 84.7191 2.37842C85.7264 1.13355 87.2494 0.416892 88.8972 0.411988C90.5777 0.411287 92.1015 1.12234 93.1292 2.37421C93.7272 3.11259 93.8809 3.83555 93.9478 4.38267L93.9493 4.39809C94.1669 6.51863 92.8942 8.67141 91.5362 9.86443C90.7907 10.518 89.8572 10.8452 88.9246 10.8452ZM88.9139 2.12482C88.9101 2.12482 88.9063 2.12482 88.9033 2.12482C87.8466 2.12762 86.8652 2.59348 86.211 3.40191C85.9485 3.72626 85.8154 4.06603 85.753 4.57532C85.5765 6.01074 86.5487 7.69975 87.6009 8.62587C88.3685 9.3012 89.4837 9.3012 90.2528 8.62517C91.4723 7.55404 92.2308 5.88674 92.0992 4.56762C92.036 4.06323 91.9037 3.72556 91.642 3.40261C90.9756 2.59138 89.9812 2.12482 88.9139 2.12482Z" fill="#3C4652"/>
<path d="M93.7632 21.7456H84.0818C82.1838 21.7456 80.6387 20.3235 80.6387 18.5756V17.9087C80.6387 15.9941 81.6025 14.268 83.2169 13.2914C84.1929 12.7008 85.328 12.3891 86.498 12.3891H91.3455C92.5155 12.3891 93.6506 12.7015 94.6266 13.2914C96.2417 14.2673 97.2048 15.9934 97.2048 17.9087V18.5756C97.2056 20.3242 95.6613 21.7456 93.7632 21.7456ZM86.4988 14.1019C85.6924 14.1019 84.9111 14.317 84.2386 14.7233C83.1659 15.372 82.4995 16.5924 82.4995 17.9087V18.5756C82.4995 19.3791 83.21 20.0334 84.0826 20.0334H93.7639C94.6365 20.0334 95.3471 19.3791 95.3471 18.5756V17.9087C95.3471 16.5924 94.6806 15.372 93.608 14.7233C92.9355 14.3163 92.1542 14.1019 91.347 14.1019H86.4988Z" fill="#3C4652"/>
<path d="M93.7632 21.7455H84.0818C82.1838 21.7455 80.6387 20.3234 80.6387 18.5755V17.9086C80.6387 15.994 81.6025 14.2679 83.2169 13.2913C84.1929 12.7008 85.328 12.389 86.498 12.389H91.3455C92.5155 12.389 93.6506 12.7015 94.6266 13.2913C96.2417 14.2672 97.2048 15.9933 97.2048 17.9086V18.5755C97.2056 20.3241 95.6613 21.7455 93.7632 21.7455ZM86.4988 14.1019C85.6924 14.1019 84.9111 14.3169 84.2386 14.7233C83.1659 15.372 82.4995 16.5923 82.4995 17.9086V18.5755C82.4995 19.3791 83.21 20.0334 84.0826 20.0334H93.7639C94.6365 20.0334 95.3471 19.3791 95.3471 18.5755V17.9086C95.3471 16.5923 94.6806 15.372 93.608 14.7233C92.9355 14.3162 92.1542 14.1019 91.347 14.1019H86.4988Z" fill="#3C4652"/>
<path d="M101.483 13.2914C100.506 12.7008 99.3718 12.3891 98.2018 12.3891H95.8184C96.4962 12.8613 97.0675 13.4434 97.5202 14.1019H98.2018C99.0082 14.1019 99.7903 14.317 100.463 14.7233C101.535 15.372 102.202 16.5924 102.202 17.9087V18.5756C102.202 19.3791 101.491 20.0334 100.619 20.0334H98.4293C98.1896 20.6821 97.7963 21.2664 97.2874 21.7463H100.619C102.518 21.7463 104.063 20.3242 104.063 18.5763V17.9094C104.061 15.9941 103.098 14.268 101.483 13.2914Z" fill="#2780A8"/>
<path d="M100.804 4.39809L100.802 4.38267C100.736 3.83555 100.582 3.11259 99.9839 2.37421C98.9569 1.12234 97.4331 0.411287 95.7518 0.411988C95.0101 0.414089 94.2965 0.567509 93.6407 0.842122C93.8804 1.05999 94.1071 1.29467 94.3155 1.54827C94.511 1.78926 94.6693 2.02954 94.8009 2.26423C95.1082 2.17736 95.4285 2.12622 95.7571 2.12552C95.7609 2.12552 95.7647 2.12552 95.7678 2.12552C96.8351 2.12552 97.8302 2.59208 98.4951 3.40261C98.756 3.72556 98.8891 4.06393 98.9523 4.56762C99.0839 5.88674 98.3254 7.55404 97.106 8.62517C96.3376 9.3012 95.2216 9.3012 94.454 8.62587C94.4372 8.61116 94.4213 8.59505 94.4053 8.58034C94.0964 9.11625 93.7434 9.60453 93.376 10.0298C94.082 10.572 94.9294 10.8459 95.7784 10.8459C96.7111 10.8459 97.6446 10.5187 98.3893 9.86443C99.7488 8.67141 101.022 6.51863 100.804 4.39809Z" fill="#2780A8"/>
</svg>
